<?xml version="1.0" standalone="no"?>
<!DOCTYPE svg PUBLIC "-//W3C//DTD SVG 20010904//EN"
 "http://www.w3.org/TR/2001/REC-SVG-20010904/DTD/svg10.dtd">
<svg version="1.0" xmlns="http://www.w3.org/2000/svg"
 width="300.000000pt" height="114.000000pt" viewBox="0 0 300.000000 114.000000"
 preserveAspectRatio="xMidYMid meet">
<metadata>
Created by potrace 1.10, written by Peter Selinger 2001-2011
</metadata>
<g transform="translate(0.000000,114.000000) scale(0.100000,-0.100000)"
fill="#000000" stroke="none">
<path d="M310 748 c0 -2 34 -82 75 -178 71 -168 75 -175 105 -178 17 -2 30 1
30 8 0 6 32 84 70 174 39 89 70 165 70 169 0 4 -11 7 -24 7 -21 0 -30 -17 -86
-150 l-63 -150 -62 147 c-56 134 -64 148 -88 151 -15 2 -27 2 -27 0z"/>
<path d="M882 740 c-131 -5 -134 -6 -158 -33 -23 -27 -24 -34 -24 -173 l0
-144 171 0 c170 0 170 0 167 22 -3 22 -5 22 -149 19 l-146 -3 1 62 1 62 148
-1 147 -2 0 26 0 25 -151 0 -151 0 6 33 c11 59 34 68 170 66 120 -1 121 -1
121 21 0 28 9 27 -153 20z"/>
<path d="M1255 741 c-77 -4 -145 -9 -151 -13 -21 -14 -36 -67 -30 -101 11 -61
34 -71 164 -77 l117 -5 3 -47 c4 -66 -10 -71 -165 -66 -123 4 -123 4 -123 -19
0 -23 0 -23 145 -23 142 0 147 1 170 25 40 40 32 137 -14 172 -10 8 -54 12
-121 13 -115 0 -130 6 -130 51 0 45 17 50 159 47 l131 -3 0 28 c0 15 -3 26 -7
25 -5 -1 -71 -4 -148 -7z"/>
<path d="M1450 728 c0 -10 -1 -21 -2 -25 -2 -3 30 -5 70 -4 l72 2 0 -155 0
-156 25 0 25 0 0 156 0 155 73 -2 c69 -2 72 -1 72 20 0 22 -1 23 -168 24 -153
2 -167 1 -167 -15z"/>
<path d="M2015 740 c-190 -8 -195 -13 -195 -212 l0 -138 25 0 c25 0 25 1 25
83 l0 82 102 -3 c129 -4 138 -10 138 -99 0 -61 1 -63 25 -63 24 0 25 2 25 69
0 52 -5 74 -19 92 -19 24 -19 25 0 48 14 17 19 39 19 87 0 35 -3 63 -7 62 -5
-1 -66 -5 -138 -8z m95 -80 c0 -53 -16 -60 -139 -60 l-101 0 0 30 c0 56 27 70
140 70 l100 0 0 -40z"/>
<path d="M2229 711 l-29 -29 0 -146 c0 -145 0 -146 23 -146 22 0 23 3 22 81
l0 80 120 0 120 0 0 -80 0 -81 29 0 c22 0 27 4 22 16 -3 9 -6 74 -6 146 l0
130 -29 29 c-29 28 -32 29 -136 29 -104 0 -107 -1 -136 -29z m236 -36 c14 -13
25 -36 25 -50 l0 -25 -126 0 -126 0 6 33 c10 52 37 67 123 67 65 0 77 -3 98
-25z"/>
</g>
</svg>
